# xmcd
#
# Track frame offsets: 
#        150
#        12835
#        24768
#        34223
#        45241
#        59137
#        74042
#        84649
#        97675
#        108717
#
# Disc length: 1617 seconds
#
# Revision: 0
# Processed by: cddbd v1.5.2PL0 Copyright (c) Steve Scherf et al.
# Submitted via: ExactAudioCopy v1.3
#
DISCID=7c064f0a
DTITLE=Porter Wagoner - Porter Wagoner's Greatest
DYEAR=1981
DGENRE=Country
TTITLE0=A Satisfied Mind
TTITLE1=Misery Loves Company
TTITLE2=Sorrow On The Rocks
TTITLE3=Green, Green Grass Of Home
TTITLE4=Skid Row Joe
TTITLE5=The Cold Hard Facts Of Life
TTITLE6=Big Wind
TTITLE7=The Carrol County Accident
TTITLE8=Eat, Drink And Be Merry (Tomorrow You'll Cry)
TTITLE9=What Would You Do (If Jesus Came To Your House)
EXTD=
EXTT0=
EXTT1=
EXTT2=
EXTT3=
EXTT4=
EXTT5=
EXTT6=
EXTT7=
EXTT8=
EXTT9=
PLAYORDER=
